<svg xmlns="http://www.w3.org/2000/svg" width="120" height="120" viewBox="0 0 120 120">
  <defs>
    <linearGradient id="bg" x1="0" y1="0" x2="1" y2="1">
      <stop offset="0%" stop-color="#2d1b69"/>
      <stop offset="100%" stop-color="#1a1145"/>
    </linearGradient>
  </defs>
  <circle cx="60" cy="60" r="58" fill="url(#bg)" stroke="#6c3fc5" stroke-width="2"/>
  <circle cx="60" cy="48" r="28" fill="#e8c39e"/>
  <circle cx="60" cy="44" r="22" fill="#f0d5a8"/>
  <circle cx="50" cy="42" r="7" fill="white"/>
  <circle cx="70" cy="42" r="7" fill="white"/>
  <circle cx="51" cy="42" r="3.5" fill="#1a1a2e"/>
  <circle cx="71" cy="42" r="3.5" fill="#1a1a2e"/>
  <circle cx="51.5" cy="41" r="1" fill="white"/>
  <circle cx="71.5" cy="41" r="1" fill="white"/>
  <ellipse cx="60" cy="52" rx="6" ry="4" fill="#c47a5a"/>
  <path d="M48 56 Q60 64 72 56" fill="none" stroke="#8b5e3c" stroke-width="2" stroke-linecap="round"/>
  <path d="M38 32 Q42 22 50 24" fill="none" stroke="#4a3520" stroke-width="4" stroke-linecap="round"/>
  <path d="M82 32 Q78 22 70 24" fill="none" stroke="#4a3520" stroke-width="4" stroke-linecap="round"/>
  <rect x="44" y="36" width="32" height="6" rx="3" fill="none" stroke="#888" stroke-width="1.5" opacity="0.6"/>
  <path d="M38 30 Q36 26 40 24 Q46 20 52 26" fill="#4a3520"/>
  <path d="M82 30 Q84 26 80 24 Q74 20 68 26" fill="#4a3520"/>
  <rect x="42" y="70" width="36" height="28" rx="6" fill="#2ecc71"/>
  <rect x="55" y="70" width="10" height="28" fill="#f0d5a8"/>
  <circle cx="60" cy="100" r="4" fill="#333"/>
</svg>